Coordinates
version=1
nRows=9
nColumns=31
inDegrees=yes

Units are S.I. units (second, meters, Newtons, ...)
If the header above contains a line with 'inDegrees', this indicates whether rotational values are in degrees (yes) or radians (no).

endheader
time	bJoint_1	bJoint_3	bJoint_4	seatpos	slocangle	soarinout	sblpos	plocangle	poarinout	pblpos	hipangle	kneeangle	footangle	lbackangle	uarmleft_out	uarmleft_trn	uarmleft_up	se_inout	se_updown	handleleft_out	handleleft_trn	handleleft_up	uarmright_out	uarmright_trn	uarmright_up	pe_inout	pe_updown	handleright_out	handleright_trn	handleright_up
      7.52000000	      0.00000106	     -0.00000004	     -0.00000011	     -0.17422423	     20.72712463	     17.83731143	    -17.83731143	     19.86518231	     17.00352276	    -17.00352276	     58.93417336	     70.76067236	     39.69484572	      2.04629614	    -35.92082015	    -47.33026525	     -1.54286694	      6.40372105	     -1.45959627	     18.52408496	     35.74426664	     41.96104900	     41.91247011	    -87.67786332	     78.71948444	      0.11961980	     -7.45234685	     37.87440857	    -58.10210182	     84.49283422
      7.54000000	      0.00000115	     -0.00000003	     -0.00000011	     -0.17354202	     20.53325503	     17.84321984	    -17.84321984	     19.66104810	     16.99639468	    -16.99639468	     59.00870789	     70.61546532	     39.62417321	      1.93181318	    -35.72094481	    -47.34982028	     -1.29054885	      6.17747691	     -1.30248425	     18.56758763	     35.79091975	     41.97749344	     41.91723121	    -87.51864044	     78.72034760	      0.14087988	     -7.17565683	     37.80782841	    -58.06174766	     84.51701432
      7.56000000	      0.00000106	     -0.00000004	     -0.00000011	     -0.17241766	     20.35232859	     17.84463576	    -17.84463576	     19.47617718	     16.99446903	    -16.99446903	     59.13186120	     70.37557704	     39.50743823	      1.87818939	    -35.82169323	    -47.33785155	     -1.16349018	      6.28388660	     -1.42540003	     18.47853772	     35.72504541	     41.92987110	     41.82426086	    -87.43029723	     78.82263692	      0.14901060	     -7.33036802	     37.81341394	    -58.04691160	     84.38833150
      7.58000000	      0.00000104	     -0.00000003	     -0.00000011	     -0.17131752	     20.13804374	     17.84626736	    -17.84626736	     19.27094392	     17.00507441	    -17.00507441	     59.25274137	     70.14016137	     39.39290274	      1.78712048	    -35.71482109	    -47.34871331	     -0.89860435	      6.14162105	     -1.43533827	     18.47931357	     35.74684996	     41.88101244	     41.79175873	    -87.22700513	     78.86889902	     -0.03476053	     -7.24243393	     37.74523677	    -58.13527987	     84.29875062
      7.60000000	      0.00000114	     -0.00000003	     -0.00000011	     -0.17022449	     19.94556825	     17.84995549	    -17.84995549	     19.07253434	     16.99270321	    -16.99270321	     59.37321618	     69.90557916	     39.27879534	      1.71616093	    -35.74421545	    -47.34549385	     -0.73050689	      6.16717682	     -1.50894754	     18.41942246	     35.70691149	     41.83603718	     41.77648490	    -87.12334053	     78.88027668	      0.01043864	     -7.03552408	     37.74895293	    -58.09204333	     84.35151810
      7.62000000	      0.00000117	     -0.00000004	     -0.00000011	     -0.16924768	     19.75274109	     17.83285793	    -17.83285793	     18.88647771	     16.99105850	    -16.99105850	     59.48119987	     69.69535620	     39.17655607	      1.64877674	    -35.71115938	    -47.31691806	     -0.59729248	      6.13824746	     -1.35679801	     18.38597239	     35.68249660	     41.91485854	     41.67916672	    -87.01948606	     78.99431165	      0.01827865	     -7.22426863	     37.73299045	    -58.07308406	     84.18463176
      7.64000000	      0.00000117	     -0.00000004	     -0.00000011	     -0.16857095	     19.55167777	     17.84917171	    -17.84917171	     18.69037072	     16.99223362	    -16.99223362	     59.55618895	     69.54938787	     39.10557682	      1.53154992	    -35.90259546	    -47.27616881	     -0.61458468	      6.44323449	     -1.23821784	     18.23475131	     35.49397411	     42.01347806	     41.69787622	    -86.85802512	     79.00225706	      0.00330064	     -6.96028359	     37.65405235	    -58.05895979	     84.18266457
      7.66000000	      0.00000111	     -0.00000003	     -0.00000011	     -0.16745941	     19.38012164	     17.84644864	    -17.84644864	     18.50277150	     16.99297037	    -16.99297037	     59.67967937	     69.30904707	     38.98872645	      1.47832935	    -35.82848608	    -47.26759277	     -0.47478498	      6.32077575	     -1.13965061	     18.23963723	     35.51799947	     42.02432776	     41.55086492	    -86.68536059	     79.18111165	     -0.16308952	     -7.38123357	     37.62715262	    -58.13401949	     83.88688298
      7.68000000	      0.00000111	     -0.00000003	     -0.00000011	     -0.16634586	     19.16556647	     17.84686223	    -17.84686223	     18.30316642	     16.99525743	    -16.99525743	     59.80379535	     69.06753472	     38.87133006	      1.39375190	    -35.88831437	    -47.31642405	     -0.21963891	      6.40319606	     -1.39129175	     18.11120209	     35.48243225	     41.92895809	     41.67404698	    -86.80519430	     79.32131864	      0.30528471	     -7.17689515	     37.68836317	    -57.88339319	     83.96963341
